<?xml version="1.0" encoding="iso-8859-1"?>
<!DOCTYPE svg PUBLIC "-//W3C//DTD SVG 1.0//EN"    "http://www.w3.org/TR/2001/REC-SVG-20010904/DTD/svg10.dtd" [
	<!ENTITY ns_svg "http://www.w3.org/2000/svg">
]>
<svg  xmlns="&ns_svg;"
	 width="617.0444" height="301" viewBox="0 0 617.0444 301" overflow="visible" enable-background="new 0 0 617.0444 301"
	 xml:space="preserve">
			<path d="M186.1489,98.7495l-2.3828,8.5h-19.5313l-15.6953,58.6802c-7.2344,25.2188-14.1328,44.7734-20.7109,58.6563
				c-9.3359,19.5938-19.3828,33.125-30.1328,40.5938c-8.1719,5.7109-16.3516,8.5703-24.5313,8.5703
				c-5.3281,0-9.8672-1.6016-13.6016-4.7969c-2.75-2.2266-4.1328-5.1172-4.1328-8.6719c0-2.8438,1.125-5.3125,3.3516-7.3984
				c2.2422-2.0938,4.9844-3.1328,8.2266-3.1328c2.375,0,4.3672,0.75,5.9844,2.2656c1.6328,1.5,2.4375,3.2344,2.4375,5.1875
				s-0.8516,3.7656-2.5547,5.4531c-1.2969,1.2422-1.9453,2.1719-1.9453,2.7969c0,0.7969,0.3125,1.4219,0.9219,1.8672
				c0.7891,0.6172,2.0156,0.9297,3.6719,0.9297c3.7656,0,7.7188-1.1953,11.8672-3.5703c4.1641-2.3828,7.8594-5.9297,11.0859-10.6406
				c3.2422-4.7266,6.2969-11.5313,9.1875-20.4297c1.2969-3.6797,4.7734-15.8047,10.4375-36.3672l25.1875-89.9927H117.813l1.8906-8.5
				c8.1172,0,13.7891-0.5,17.0234-1.5156c3.2266-1.0156,6.1875-2.9531,8.875-5.8203c2.6875-2.8594,5.8906-8.2109,9.6094-16.0547
				c4.9844-10.5703,9.75-18.7656,14.3125-24.5859c6.2422-7.8359,12.8047-13.7188,19.6875-17.6406s13.3672-5.8828,19.4453-5.8828
				c6.4141,0,11.5625,1.6953,15.4453,5.0703c3.8828,3.3828,5.8281,7.0469,5.8281,11c0,3.0781-1.0156,5.6641-3.0313,7.7734
				s-4.6016,3.1563-7.7578,3.1563c-2.7188,0-4.9375-0.7891-6.6484-2.375c-1.7109-1.5781-2.5625-3.4688-2.5625-5.6719
				c0-1.4063,0.5781-3.1406,1.75-5.2109c1.1641-2.0625,1.75-3.4531,1.75-4.1563c0-1.2266-0.3672-2.1484-1.0859-2.7656
				c-1.0469-0.875-2.5781-1.3203-4.5938-1.3203c-5.0781,0-9.625,1.8281-13.6563,5.4766
				c-5.3984,4.8438-10.2266,12.4141-14.4922,22.7266c-2.1797,5.3906-6.4688,17.9844-12.8672,37.7969H186.1489z"/>
			<path d="M329.7905,267.75v5c-13.4063-6.6875-24.5938-14.5234-33.5547-23.4922c-12.7813-12.7656-22.6406-27.8125-29.5625-45.1406
				s-10.3828-35.3281-10.3828-53.9849c0-27.2734,6.7891-52.1563,20.3672-74.6406s31.2891-38.5625,53.1328-48.2422v5
				c-10.9688,6-19.9688,14.1953-27.0078,24.5938c-7.0469,10.4063-12.3047,23.5859-15.7813,39.5391s-5.2109,32.6172-5.2109,49.9844
				c0,18.8677,1.4688,36.0161,4.4141,51.438c2.3125,12.1641,5.125,21.9219,8.4219,29.2891
				c3.2969,7.3516,7.7266,14.4297,13.2969,21.2188C313.4937,255.0938,320.7827,261.5781,329.7905,267.75z"/>
			<path d="M396.0464,95.7495c4.2891,4.5469,7.5313,9.0859,9.7266,13.625c1.5625,3.2344,4.1406,11.7344,7.7188,25.4844
				l11.5313-17.6172c3.0547-4.2656,6.7656-8.3359,11.1328-12.2109s8.2109-6.5234,11.5391-7.9453
				c2.0938-0.8906,4.4063-1.3359,6.9375-1.3359c3.7578,0,6.75,1.0391,8.9766,3.1016s3.3438,4.5781,3.3438,7.5313
				c0,3.4141-0.6563,5.75-1.9609,7c-2.4375,2.25-5.2188,3.3672-8.3516,3.3672c-1.8281,0-3.7813-0.4141-5.8672-1.2578
				c-4.0938-1.4922-6.8359-2.2422-8.2266-2.2422c-2.0938,0-4.5703,1.2422-7.4375,3.7188
				c-5.3906,4.6016-11.8281,13.4922-19.3125,26.6641l10.7734,45.0396c1.625,6.9219,2.9922,11.0625,4.1016,12.4219
				s2.2188,2.0391,3.3281,2.0391c1.7969,0,3.8906-1.0078,6.2813-3.0234c4.6953-4.0313,8.7109-9.2969,12.0469-15.7969l4.625,2.375
				c-5.4688,10.3516-12.4063,18.9453-20.8203,25.7813c-4.7734,3.8516-8.8047,5.7813-12.1016,5.7813
				c-4.8594,0-8.7188-2.7188-11.5781-8.1484c-1.8281-3.4219-5.5938-18.1563-11.3125-44.2188
				c-13.7969,23.7188-24.8516,38.9844-33.1641,45.8047c-5.3984,4.375-10.6172,6.5625-15.6563,6.5625
				c-3.5391,0-6.7578-1.2656-9.6797-3.7813c-2.125-1.9063-3.1875-4.4688-3.1875-7.6875c0-2.8594,0.9688-5.25,2.9063-7.1641
				c1.9375-1.9063,4.3203-2.8672,7.1328-2.8672s5.8125,1.4609,8.9844,4.3672c2.2891,2.0938,4.0547,3.1328,5.2891,3.1328
				c1.0547,0,2.4219-0.6953,4.0938-2.1016c4.1406-3.3281,9.7734-10.5234,16.9063-21.5703s11.8047-19.0234,14.0078-23.9375
				c-5.4453-21.7036-8.3828-33.188-8.8203-34.4458c-2.0078-5.8047-4.625-9.9141-7.8438-12.3281
				c-3.2188-2.4063-7.9688-3.6172-14.2344-3.6172c-2,0-4.3125,0.0938-6.9219,0.2656v-4.7656L396.0464,95.7495z"/>
			<path d="M488.1147,32.2495v-5c13.4922,6.6016,24.7188,14.3906,33.6875,23.3594c12.6875,12.8516,22.5,27.9219,29.4219,45.2109
				c6.9219,17.2969,10.3906,35.3125,10.3906,54.0469c0,27.2817-6.7734,52.1567-20.3047,74.6411
				c-13.5391,22.4844-31.2734,38.5625-53.1953,48.2422v-5c10.9609-6.0859,19.9844-14.3047,27.0703-24.6563
				c7.0859-10.3672,12.3438-23.5391,15.7813-39.5391c3.4297-16,5.1484-32.6797,5.1484-50.0469
				c0-18.7817-1.4766-35.9224-4.4141-51.438c-2.2344-12.1641-5.0156-21.9063-8.3594-29.2266
				c-3.3438-7.3125-7.7734-14.3672-13.2969-21.1563C504.5132,44.9058,497.2085,38.4214,488.1147,32.2495z"/>
</svg>
